<?xml version="1.0" encoding="utf-8"?>
<!-- Generator: Adobe Illustrator 28.1.0, SVG Export Plug-In . SVG Version: 6.00 Build 0)  -->
<svg version="1.1" id="Слой_1" xmlns="http://www.w3.org/2000/svg" xmlns:xlink="http://www.w3.org/1999/xlink" x="0px" y="0px"
	 viewBox="0 0 594.96 724.85" preserveAspectRatio="none" style="enable-background:new 0 0 594.96 724.85;" xml:space="preserve">
<style type="text/css">
	.st0{clip-path:url(#SVGID_00000153686997206779015270000001183223655721033604_);fill:#B59E54;}
</style>
<g>
	
	<path style="clip-path:url(#SVGID_00000106861218441049207750000012369970898801251741_);fill:#B59E54;" d="M586.56,696.32h-4.52
		V29.53h4.52V696.32z M15.68,695.3h-4.54V28.48h4.54V695.3z M594.96,16.27v-4.09h-13.09V2.65h-5.71c0,0-2.26,3.28-8.34,3.28H29.45
		c-6.08,0-8.34-3.28-8.34-3.28H15.4v9.53H2.31v4.09C7.7,16.27,8,25.09,8,25.09V695.3c0,0-0.3,8.72-5.69,8.72v4.26H15.4v14.92h5.71
		V9.7h555.04v706.45H21.11v7.06c0,0,2.26-3.28,8.34-3.28h538.37c6.05,0,8.31,3.24,8.34,3.28h5.71v-14.92h13.09v-4.26
		c-5.39,0-5.69-8.8-5.69-8.8V25.09C589.27,25.09,589.57,16.27,594.96,16.27z"/>
</g>
</svg>
