<?xml version="1.0" encoding="utf-8"?>
<!-- Generator: Adobe Illustrator 28.1.0, SVG Export Plug-In . SVG Version: 6.00 Build 0)  -->
<svg version="1.1" id="Слой_1" xmlns="http://www.w3.org/2000/svg" xmlns:xlink="http://www.w3.org/1999/xlink" x="0px" y="0px"
	 viewBox="0 0 594.96 83.94" preserveAspectRatio="none" style="enable-background:new 0 0 594.96 83.94;" xml:space="preserve">
<style type="text/css">
	.st0{opacity:0.502;clip-path:url(#SVGID_00000173120295748743297670000004455649637526405518_);fill:#B59E54;}
</style>
<g>
	<defs>
		<rect id="SVGID_1_" width="594.96" height="83.94"/>
	</defs>
	<clipPath id="SVGID_00000086688608931356755160000007195939906336351418_">
		<use xlink:href="#SVGID_1_"  style="overflow:visible;"/>
	</clipPath>
	<path style="opacity:0.502;clip-path:url(#SVGID_00000086688608931356755160000007195939906336351418_);fill:#B59E54;" d="
		M83.44,12.59c-5.92-1.23-12.59-3.21-20.49-6.42h13.08C78.75,8.15,81.22,10.37,83.44,12.59z M111.34,11.36
		c-3.46,1.73-9.13,3.46-19.01,2.72c-0.74-0.99-1.23-1.73-1.97-2.72H111.34z M590.52,24.69v4.69c-5.68-8.39-17.53-14.57-25.67-18.02
		h13.58C580.4,14.07,585.33,21.48,590.52,24.69z M578.67,72.58h-13.58c8.15-3.46,20-9.63,25.67-18.02v4.69
		C585.33,62.46,580.4,69.86,578.67,72.58z M92.58,69.86c9.63-0.99,15.55,0.99,19.01,2.72H90.6C91.1,71.59,91.84,70.85,92.58,69.86z
		 M76.04,77.76H62.95c7.9-3.21,14.81-5.18,20.49-6.42C81.22,73.57,78.75,75.79,76.04,77.76z M99,16.79
		c1.48,2.47,7.65,12.84,7.65,25.18c0,12.34-6.17,22.71-7.65,25.18c-1.48,0-3.21,0-4.94,0c4.44-7.65,7.16-16.29,7.16-25.43
		c0-9.13-2.47-17.77-6.91-25.43C95.79,16.79,97.51,16.79,99,16.79z M558.67,11.36c7.65,2.72,27.4,11.11,31.85,22.96v15.31
		c-4.69,11.85-24.44,20.24-31.85,22.96H115.78c-1.97-1.73-6.17-4.44-14.07-5.18c2.22-3.7,7.41-13.58,7.41-25.43
		c0-11.85-4.94-21.72-7.41-25.43c7.9-0.74,12.1-3.46,14.07-5.18H558.67z M6.17,41.97c0-14.32,7.16-27.65,18.76-35.8h25.43
		c11.6,5.18,27.4,7.9,35.3,9.38c5.68,7.41,9.13,16.79,9.13,26.42c0,9.63-3.21,19.01-9.13,26.42c-7.65,1.48-23.45,4.2-35.3,9.38
		H24.93C13.33,69.62,6.17,56.29,6.17,41.97z M22.47,0.49C8.39,9.87,0,25.18,0,41.97c0,16.79,8.39,32.09,22.47,41.47l0.74,0.49h54.56
		l0.74-0.49c2.96-1.97,5.68-4.2,8.15-6.67h494.24l0.74-0.99c1.73-2.96,7.41-11.11,12.1-13.33l1.23-0.49V22.22l-1.23-0.49
		c-4.69-2.22-10.37-10.37-12.1-13.33l-0.74-0.99H86.65c-2.47-2.47-5.18-4.69-8.15-6.67l-0.74-0.49H23.21L22.47,0.49z"/>
</g>
</svg>
