<?xml version="1.0" encoding="utf-8"?>
<!-- Generator: Adobe Illustrator 28.1.0, SVG Export Plug-In . SVG Version: 6.00 Build 0)  -->
<svg version="1.1" id="Слой_1" xmlns="http://www.w3.org/2000/svg" xmlns:xlink="http://www.w3.org/1999/xlink" x="0px" y="0px"
	 viewBox="0 0 315.22 840.96" style="enable-background:new 0 0 315.22 840.96;" xml:space="preserve">
<style type="text/css">
	.st0{clip-path:url(#SVGID_00000183207549375552638560000006266208224554728855_);fill:#B59E54;}
</style>
<g>

	<path style="clip-path:url(#SVGID_00000070096713570082946120000011473604339421882247_);fill:#B59E54;" d="M307.33,785.51
		c-1.45-11.14-2-22.32-1.66-33.54c1.1,11.96,2.52,24.5,4.4,31.26C309.09,783.93,308.18,784.69,307.33,785.51 M306.67,799.35
		l-0.56,6.31c-1.1-3.39-2.2-6.08-2.28-6.22c-0.56-2.52-0.25-4.92,0.93-7.21C305.27,794.64,305.9,797.01,306.67,799.35 M292.37,837.2
		h-9.76c18.29-7.54,21.62-21.71,21.9-29.89c0.42,1.39,0.81,2.81,1.1,4.2l-1.36,15.47C301.18,828.08,293.75,831.44,292.37,837.2
		 M11.75,826.98l-1.39-15.47c0.27-1.33,0.65-2.72,1.1-4.06c0.09,3.28,0.66,6.47,1.7,9.59c2.2,6.6,7.56,14.92,20.25,20.16H23.6
		c-1.37-5.76-8.79-9.08-11.87-10.22 M12.19,799.26c-0.1,0.23-1.24,2.99-2.33,6.4l-0.56-6.31c0.78-2.36,1.42-4.76,1.93-7.2
		c1.19,2.25,1.52,4.62,0.98,7.11 M5.9,783.24c1.88-6.76,3.3-19.31,4.4-31.26c0.35,11.22-0.2,22.4-1.65,33.53
		C7.78,784.68,6.87,783.93,5.9,783.24 M8.67,55.45c1.44,11.15,1.98,22.35,1.63,33.59c-1.1-11.95-2.52-24.5-4.4-31.26
		c0.97-0.69,1.88-1.45,2.74-2.28 M9.31,41.61l0.56-6.31c1.1,3.37,2.2,6.08,2.28,6.22c0.56,2.51,0.26,4.92-0.91,7.21
		c-0.51-2.41-1.14-4.78-1.9-7.12 M23.6,3.76h9.76c-18.29,7.55-21.62,21.71-21.9,29.89c-0.42-1.37-0.81-2.81-1.1-4.2l1.36-15.47
		C14.79,12.88,22.22,9.52,23.6,3.76 M304.23,13.98l1.36,15.47c-0.27,1.33-0.65,2.73-1.1,4.06c-0.09-3.28-0.66-6.47-1.7-9.59
		c-2.2-6.6-7.56-14.92-20.25-20.16h9.77c1.37,5.76,8.79,9.08,11.87,10.22 M303.77,41.64c0.1-0.23,1.24-2.99,2.33-6.4l0.56,6.31
		c-0.78,2.38-1.42,4.8-1.92,7.26c-1.19-2.25-1.52-4.62-0.98-7.11 M310.06,57.67c-1.88,6.76-3.3,19.31-4.4,31.27
		c-0.35-11.22,0.2-22.4,1.65-33.54C308.18,56.22,309.09,56.98,310.06,57.67 M301.93,800.08c0,0,0.49,1.18,1.1,2.87
		c0.49,4.66,0,9.21-1.46,13.65c-3.22,9.63-11.11,16.67-22.93,20.6H37.26c-25.28-8.39-25.06-28.25-24.36-34.18
		c0.65-1.79,1.17-3.02,1.2-3.11c0.4-1.87,0.39-3.74-0.01-5.61c-0.4-1.87-1.17-3.58-2.3-5.12c3.72-20.7,1.82-47.06,1.74-48.25V100.17
		c0.1-1.31,1.99-27.71-1.73-48.42c1.13-1.57,1.89-3.3,2.28-5.19c0.39-1.89,0.38-3.78-0.03-5.67c0,0-0.49-1.18-1.1-2.87
		c-0.5-4.65-0.02-9.2,1.43-13.65c3.24-9.63,11.14-16.67,22.96-20.6h241.36c25.34,8.39,25.06,28.25,24.36,34.18
		c-0.65,1.79-1.17,3.02-1.2,3.12c-0.4,1.87-0.39,3.74,0.01,5.61c0.4,1.87,1.17,3.57,2.3,5.11c-3.72,20.7-1.82,47.06-1.74,48.25
		v640.77c-0.1,1.31-1.99,27.71,1.73,48.37c-1.13,1.57-1.89,3.3-2.28,5.19c-0.39,1.89-0.38,3.78,0.03,5.67 M306.15,719.51V110.5
		c0.85-14.03,2.9-42.45,6.07-52.92l0.23-0.76l-0.66-0.42c-1.48-1-2.83-2.15-4.05-3.45c0.58-3.57,1.44-7.07,2.57-10.51l0.13-0.37
		l-2.74-30.89l-1.19-0.37c-2.77-0.88-10.67-4.4-10.67-8.93V0H20.12v1.88c0,4.54-7.7,7.98-10.67,8.93l-1.19,0.37l-2.73,30.9
		l0.13,0.37c1.13,3.43,1.98,6.93,2.57,10.49c-1.21,1.31-2.56,2.47-4.05,3.47l-0.66,0.42l0.23,0.76c3.17,10.44,5.27,38.82,6.06,52.87
		v609.01c-0.79,14.02-2.89,53.45-6.06,63.9l-0.23,0.76l0.66,0.42c1.48,0.99,2.83,2.14,4.05,3.45c-0.58,3.57-1.43,7.08-2.57,10.51
		l-0.13,0.38l2.73,30.89l1.19,0.37c2.97,0.95,10.67,4.4,10.67,8.93v1.88h275.73v-1.88c0-4.54,7.7-7.98,10.67-8.93l1.19-0.37
		l2.73-30.89l-0.13-0.38c-1.13-3.43-1.98-6.93-2.57-10.49c1.21-1.31,2.56-2.47,4.05-3.47l0.66-0.42l-0.23-0.76
		C309.04,772.92,307,733.56,306.15,719.51"/>
</g>
</svg>
