<?xml version="1.0" encoding="utf-8"?>
<!-- Generator: Adobe Illustrator 28.1.0, SVG Export Plug-In . SVG Version: 6.00 Build 0)  -->
<svg version="1.1" id="Слой_1" xmlns="http://www.w3.org/2000/svg" xmlns:xlink="http://www.w3.org/1999/xlink" x="0px" y="0px"
	 viewBox="0 0 594.96 189.05" preserveAspectRatio="none" style="enable-background:new 0 0 594.96 189.05;" xml:space="preserve">
<style type="text/css">
	.st0{opacity:0.502;clip-path:url(#SVGID_00000114792661753458679230000002293415248087159739_);fill:#B59E54;}
	.st1{clip-path:url(#SVGID_00000016791113561085203680000007055825027247842966_);fill:none;stroke:#B59E54;stroke-width:6;}
</style>
<g>
	<defs>
		<rect id="SVGID_1_" width="594.96" height="189.05"/>
	</defs>
	<clipPath id="SVGID_00000160182874584437609720000013923479417205329570_">
		<use xlink:href="#SVGID_1_"  style="overflow:visible;"/>
	</clipPath>
	<path style="opacity:0.502;clip-path:url(#SVGID_00000160182874584437609720000013923479417205329570_);fill:#B59E54;" d="
		M424.82,33.54c4.61-5.12,9.74-9.74,15.37-13.32h27.16C450.96,26.88,436.61,30.98,424.82,33.54z M409.96,30.98
		c-1.54,2.05-2.56,3.59-4.1,5.64c-19.99,2.05-32.28-2.05-39.46-5.64H409.96z M7.17,58.65c10.76-6.66,21.52-22.04,25.11-27.67h28.18
		c-16.91,7.17-41,19.99-53.3,37.41V58.65z M32.28,158.07c-3.59-5.64-14.35-21.01-25.11-27.67v-9.74
		c11.79,17.42,36.38,30.24,53.3,37.41H32.28z M405.86,152.43c1.54,2.05,2.56,3.59,4.1,5.64H366.4
		C373.58,154.48,385.88,150.38,405.86,152.43z M440.2,168.83c-5.64-4.1-10.76-8.71-15.37-13.32c12.3,2.56,26.14,6.66,42.53,13.32
		H440.2z M392.54,42.25c3.07,0,6.66,0,10.25,0c-9.22,15.89-14.35,33.82-14.35,52.78s5.12,36.9,14.86,52.78
		c-3.59,0-6.66-0.51-10.25,0c-3.07-5.12-15.89-26.65-15.89-52.27S389.47,47.38,392.54,42.25z M357.69,30.98
		c4.1,3.59,12.81,9.22,29.21,10.76c-4.61,7.69-15.37,28.19-15.37,52.78c0,24.6,10.25,45.1,15.37,52.78
		c-16.4,1.54-25.11,7.17-29.21,10.76H73.79c-15.89-5.64-56.88-23.06-66.11-47.66V78.64c9.74-24.6,50.73-41.51,66.11-47.66H357.69z
		 M584.71,94.52c0,29.72-14.86,57.39-38.95,74.31h-52.78c-24.09-10.76-56.88-16.4-73.28-19.47c-11.79-15.37-18.96-34.85-18.96-54.83
		c0-19.99,6.66-39.46,18.96-54.83c15.89-3.07,48.68-8.71,73.28-19.47h52.78C570.36,37.13,584.71,64.8,584.71,94.52z M547.3,7.41
		H434.56l-1.54,1.03c-6.15,4.1-11.79,8.71-16.4,13.84H29.21l-1.54,2.05C24.09,30.47,12.3,47.38,2.56,51.99L0,53.02v82.5l2.56,1.03
		c9.22,4.61,21.01,21.52,25.11,27.67l1.54,2.05h387.42c5.12,5.12,10.76,9.74,16.4,13.84l1.54,1.03h112.23l1.54-1.03
		c28.7-19.47,46.12-51.25,46.12-86.09c0-34.85-17.42-66.62-46.12-86.09L547.3,7.41z"/>
</g>
<g>
	<defs>
		<rect id="SVGID_00000040563197140534082810000010552020147713184408_" x="385" width="204.4" height="200.17"/>
	</defs>
	<clipPath id="SVGID_00000147191182281193406740000015579925479883515322_">
		<use xlink:href="#SVGID_00000040563197140534082810000010552020147713184408_"  style="overflow:visible;"/>
	</clipPath>
	
		<path style="clip-path:url(#SVGID_00000147191182281193406740000015579925479883515322_);fill:none;stroke:#B59E54;stroke-width:6;" d="
		M439.2,17.09h97.06c2.9,0,5.5,0.77,7.47,2.24c15.83,11.83,40.68,40.22,40.68,80.76s-24.85,68.93-40.68,80.76
		c-1.96,1.47-4.57,2.24-7.47,2.24H439.2c-3.4,0-6.46-1.06-8.65-3.05c-15.24-13.77-38.07-43.44-38.07-79.95s22.84-66.18,38.07-79.95
		C432.74,18.15,435.8,17.09,439.2,17.09z"/>
</g>
</svg>
