<?xml version="1.0" encoding="utf-8"?>
<!-- Generator: Adobe Illustrator 28.1.0, SVG Export Plug-In . SVG Version: 6.00 Build 0)  -->
<svg version="1.1" id="Слой_1" xmlns="http://www.w3.org/2000/svg" xmlns:xlink="http://www.w3.org/1999/xlink" x="0px" y="0px"
	 viewBox="0 0 589.74 685.56" style="enable-background:new 0 0 589.74 685.56;" xml:space="preserve">
<style type="text/css">
	.st0{clip-path:url(#SVGID_00000145755895830112029350000015347681870905934515_);fill:#B59E54;}
</style>
<g>
	<defs>
		<rect id="SVGID_1_" x="2.74" width="584.53" height="685.56"/>
	</defs>
	<clipPath id="SVGID_00000119832078549856513310000014277953188518970040_">
		<use xlink:href="#SVGID_1_"  style="overflow:visible;"/>
	</clipPath>
	<path style="clip-path:url(#SVGID_00000119832078549856513310000014277953188518970040_);fill:#B59E54;" d="M32.92,354.39
		c0.76-44.63-1.33-89.13-6.28-133.49c-2.95,2.57-6.03,4.97-9.24,7.22C24.11,251.85,29.02,313.55,32.92,354.39z M32.92,604.92h51.74
		c-15.31-10.04-31.98-16.68-50.01-19.92C34,593.3,33.35,600.16,32.92,604.92z M35.44,574.83c4.39,0.51,8.72,1.36,12.99,2.53
		c-3.97-3.97-8.15-8.37-12.27-13.2C36.16,567.9,35.66,571.37,35.44,574.83z M146.78,651.9c-12.44-0.4-24.66,1.04-36.66,4.33
		c20.06,8.23,45.1,15.73,52.75,11.47h0.51c-3.03-3.03-8.8-8.51-16.6-15.44V651.9z M294.71,664.89c50.51,0,93.81-18.4,118.92-45.82
		c1.95-2.16,3.82-4.47,5.63-6.78c0.14-0.26,0.31-0.5,0.5-0.72c1.6-2.12,3.07-4.34,4.4-6.64c6.93-11.18,10.44-23.36,10.54-36.51
		c0-53.18-62.78-96.48-139.99-96.48s-139.99,43.3-139.99,96.48c0.11,13.14,3.59,25.31,10.46,36.51c1.37,2.31,2.89,4.47,4.47,6.64
		l0.58,0.72c1.73,2.31,3.61,4.62,5.56,6.78C200.54,646.49,244.49,664.89,294.71,664.89z M425.97,667.34h0.51
		c7.65,4.26,32.76-3.25,52.75-11.47c-12-3.29-24.22-4.73-36.66-4.33c-7.72,7.22-13.57,12.41-16.6,15.44V667.34z M504.91,604.85
		h51.74c-0.43-4.76-1.08-11.62-1.73-19.92C536.88,588.15,520.21,594.79,504.91,604.85z M540.99,577.29
		c4.26-1.18,8.59-2.02,12.99-2.53c0-3.32-0.51-7.22-0.72-10.68C549.14,568.91,544.96,573.32,540.99,577.29z M556.5,354.39
		c3.82-40.84,9.02-102.54,15.51-125.99c-3.2-2.24-6.28-4.65-9.24-7.22c-4.95,44.36-7.04,88.86-6.28,133.49V354.39z M19.21,573.39
		h2.02c0.58-8.08,1.15-17.17,1.73-27.13c-8.82-12.8-14.14-26.92-15.95-42.36c-0.75-9.63,0.5-18.98,3.74-28.07
		c3.25-9.09,8.2-17.12,14.88-24.1v-8.44c0,0-9.96-185.88-19.12-215.54l-1.15-4.04l3.39-2.09c5.82-3.87,11.11-8.37,15.87-13.49
		c4.94-4.55,8.67-9.94,11.18-16.16c3.72-7.69,4.63-15.7,2.74-24.03c0-0.79-4.19-9.74-8.08-21.65l-1.88,20.57
		c1.95,5.7,3.61,11.76,5.12,17.97c-2.53,5.76-6.28,10.57-11.26,14.43c-1.88-9.8-4.35-19.45-7.43-28.94l-0.51-1.44l8.95-99.36
		c0,14.43,9.96,47.12,9.96,47.12c3.49,16.53,8.54,32.58,15.15,48.13c1.56,7.47,1.46,14.91-0.3,22.33c-1.75,7.42-5,14.11-9.73,20.1
		c12.12,67.04,0.58,305.16-0.94,333.23c-5.56-7.79-10.07-16.16-13.49-25.11c0.58-14.43,0.94-30.02,1.15-46.25
		c-6.6,10.39-9.36,21.72-8.3,33.99c1.81,14.27,6.86,27.28,15.15,39.04l1.08,1.59l3.25,4.62l0.43,0.5
		c11.94,15.51,25.75,29.12,41.42,40.84c8.66,4.66,17.05,9.76,25.18,15.3l1.88,1.3c5.7,3.9,11.18,7.86,16.52,11.91l1.3,0.94
		c10.25,7.87,19.56,15.66,27.28,22.44c10.03,0,19.84,0.79,28.86,1.59c-8.81-6.92-16.48-14.93-23.02-24.03H131.7l-17.97-14.43h16.74
		c-3.44-9.73-5.56-19.73-6.35-30.02c-1.88,3.1-4.24,5.79-7.07,8.07c-2.83,2.27-5.96,4-9.39,5.18c-3.43,1.18-6.96,1.74-10.59,1.68
		c-3.63-0.06-7.14-0.73-10.54-2.01c4.26,1.3,21.65,3.82,37.81-29.44c1.17-15.12,7.23-27.91,18.18-38.39
		c-6.07,11.41-9.73,23.55-10.98,36.41c-1.25,12.86,0.01,25.47,3.76,37.84c2.53,3.31,5.87,4.96,10.03,4.98
		c-3.89-9.81-5.81-19.98-5.77-30.52c0-61.7,69.71-111.92,155.43-111.92c85.72,0,154.85,50.22,154.85,111.92
		c0.04,10.54-1.88,20.72-5.77,30.52c3.94-0.04,7.17-1.58,9.67-4.62c3.75-12.37,5.01-24.98,3.76-37.84
		c-1.25-12.87-4.91-25-10.98-36.41c11.08,10.46,17.25,23.27,18.47,38.46c15.87,33.27,33.48,30.74,37.81,29.44
		c-3.39,1.28-6.91,1.96-10.54,2.01c-3.63,0.06-7.17-0.51-10.59-1.68c-3.43-1.18-6.57-2.91-9.4-5.18c-2.83-2.28-5.19-4.96-7.07-8.07
		c-0.79,10.29-2.91,20.29-6.35,30.02h16.74l-17.97,14.43h-24.53c-6.54,9.1-14.21,17.11-23.02,24.03c8.66-0.79,18.54-1.52,28.86-1.59
		c7.72-6.78,17.03-14.43,27.28-22.44l1.3-0.94c5.34-4.04,10.82-8.01,16.52-11.91l1.88-1.3c8.13-5.51,16.52-10.59,25.18-15.23
		c15.67-11.72,29.48-25.34,41.42-40.84l0.43-0.51l3.25-4.62l1.08-1.59c8.4-11.9,13.48-25.08,15.23-39.54
		c0.92-12.3-1.97-23.62-8.66-33.99c0,16.24,0.58,31.82,1.15,46.25c-3.34,8.93-7.74,17.3-13.21,25.11
		c-1.52-28.07-13.06-266.19-0.94-333.23c-4.68-6-7.87-12.71-9.56-20.14c-1.7-7.42-1.73-14.85-0.11-22.29
		c6.5-15.58,11.52-31.63,15.08-48.13c0,0,10.1-32.33,9.96-47.12l8.66,99.36l-0.51,1.44c-3.2,9.65-5.77,19.46-7.72,29.44
		c-4.94-3.9-8.72-8.7-11.33-14.43c1.59-6.21,3.25-12.27,5.12-17.97l-1.8-20.57c-3.9,11.62-7.72,20.57-8.08,21.65
		c-1.85,8.44-0.84,16.52,3.03,24.25c2.52,6.22,6.25,11.61,11.18,16.16c4.76,5.12,10.05,9.62,15.87,13.49l3.46,2.09l-1.23,3.82
		c-9.09,29.66-19.05,215.54-19.05,215.54c0,2.81,0,5.7,0,8.44c6.67,6.98,11.63,15.01,14.88,24.1c3.24,9.09,4.49,18.44,3.74,28.07
		c-1.86,15.45-7.16,29.61-15.88,42.5c0.51,9.96,1.08,19.05,1.66,27.13h2.02c10.75-0.87,20.13,5.12,15.59,12.63
		c-2.86,4.68-6.99,7.45-12.41,8.3c2.27-1.64,4.07-3.68,5.41-6.13c1.23-2.16,0-3.18-1.01-3.68h-2.74c-2.02-0.11-4.04-0.11-6.06,0
		c1.3,16.67,2.31,26.77,2.38,27.35l1.08,6.57h-89.19c-10.54,7.22-20.49,15.51-28.86,22.73c18.49-0.36,35.33,4.73,50.51,15.3
		l-19.84,7.87c-12.48,5.4-25.34,9.58-38.6,12.56h-2.38l-1.52,0.79c-69.71,12.05-76.99,5.41-76.99,5.41
		c18.88-0.27,35.19-6.88,48.92-19.84l1.66-1.73c0.72-0.72,4.47-4.47,10.53-10.1c-4.47,0-8.8,0.51-13.06,0.87h-3.18
		c-2.88,0.36-5.72,0.91-8.51,1.66c-2.14,0.51-4.23,1.16-6.28,1.95h-1.01c-2.5,0.84-4.91,1.9-7.22,3.17l-0.79,0.51
		c-1.96,1.14-3.81,2.44-5.56,3.9l-1.59,1.37c-2.05,1.85-3.85,3.93-5.41,6.21l-56.93,6.49h0.43c-15.54,1.93-31.08,1.93-46.61,0h0.43
		l-56.93-6.49c-1.56-2.3-3.39-4.37-5.48-6.21l-1.59-1.44c-1.81-1.45-3.71-2.78-5.7-3.97l-0.65-0.43c-2.22-1.19-4.51-2.25-6.86-3.17
		l-0.94,0.22c-2.16-0.79-4.26-1.44-6.21-1.95c-3.32-0.79-6.21-1.23-8.23-1.52h-3.17c-4.26,0-8.59-0.65-13.06-0.87
		c6.06,5.63,9.81,9.38,10.46,10.1l1.73,1.73c13.78,12.84,30.08,19.37,48.92,19.56c0,0-7.22,6.64-76.99-5.41h-1.73h-2.38
		c-13.26-2.97-26.14-7.15-38.6-12.56l-19.84-7.87c15.18-10.56,32.02-15.66,50.51-15.3c-8.66-7.22-18.62-15.15-28.86-22.73H16.9
		l0.87-7.79c0-0.58,1.08-10.68,2.38-27.35c-2.02-0.11-4.04-0.11-6.06,0h-2.74c-1.23,0.51-2.24,1.52-1.01,3.68
		c1.31,2.45,3.09,4.5,5.34,6.13c-5.31-1.01-9.32-3.85-12.05-8.51C-0.93,578.8,8.45,572.52,19.21,573.39z M35.08,98.3
		c-5.39-17.33-8.85-35.03-10.39-53.11v-3.03l4.55-1.44c10.9-3.32,41.13-16.52,41.13-33.48V0.02h448.68v7.22
		c0,17.1,30.23,30.31,40.84,33.63l4.55,1.44v3.03c-1.57,18.08-5.04,35.78-10.39,53.11l-3.17-45.75c-11.4-4.26-39.9-16.6-45.17-38.24
		H83.72c-5.34,21.65-33.77,33.99-45.17,38.24L35.08,98.3z"/>
</g>
</svg>
