<?xml version="1.0" encoding="utf-8"?>
<!-- Generator: Adobe Illustrator 28.1.0, SVG Export Plug-In . SVG Version: 6.00 Build 0)  -->
<svg version="1.1" id="Слой_1" xmlns="http://www.w3.org/2000/svg" xmlns:xlink="http://www.w3.org/1999/xlink" x="0px" y="0px"
	 viewBox="0 0 41.92 50.18" style="enable-background:new 0 0 41.92 50.18;" xml:space="preserve">
<style type="text/css">
	.st0{opacity:0.8588;clip-path:url(#SVGID_00000160161018464950997560000009609895884542684093_);fill:#10161A;}
</style>
<g>
	<defs>
		<rect id="SVGID_1_" x="-1.7" y="-1.12" width="45.42" height="53.28"/>
	</defs>
	<clipPath id="SVGID_00000144340252603522044630000005359329488801489327_">
		<use xlink:href="#SVGID_1_"  style="overflow:visible;"/>
	</clipPath>
	<path style="opacity:0.8588;clip-path:url(#SVGID_00000144340252603522044630000005359329488801489327_);fill:#10161A;" d="
		M41.8,29.05c-0.31-0.25-0.54-0.56-0.7-0.93c-0.16-0.36-0.23-0.74-0.22-1.14c0-3.53-0.73-8.14,0.77-11.6
		c-0.43-0.47-0.67-1.01-0.72-1.64c-0.41-0.46-0.65-1-0.73-1.62c-0.07-0.62,0.03-1.2,0.32-1.75c0.72-1.5,0.66-3.75,0.49-5.35
		C40.96,4.31,41.18,3.7,41.7,3.2c0.07-0.35,0.13-0.7,0.2-1.04C39.5,3.08,38.04,0,38.04,0H3.99c0,0-1.2,2.49-3.17,2.33
		C0.87,2.58,0.9,2.83,0.9,3.08c0,0.86-0.1,1.74-0.12,2.61c0.05,0.7,0.13,1.39,0.25,2.06c0.47,1.42,0.77,2.87,0.89,4.36
		c0.04,0.68-0.15,1.28-0.59,1.8c-0.14,0.52-0.42,0.96-0.82,1.31c0.18,0.38,0.27,0.77,0.28,1.19c0.1,3.89,0.44,7.59,0.14,11.5
		c-0.03,0.64-0.26,1.2-0.67,1.68c0.03,1.12,0,2.24,0,3.4c0.39,0.66,0.47,1.35,0.25,2.08c-1.27,4.73,1.37,7.53,4.73,9.86
		c0.09,0.03,0.19,0.07,0.27,0.12c0.51,0.28,1.02,0.56,1.53,0.87c0.03,0.02,0.06,0.04,0.1,0.06c0.3,0.17,0.61,0.33,0.93,0.48
		c0.04,0.02,0.08,0.05,0.12,0.07h1.04c-0.32-0.3-0.55-0.66-0.67-1.08c-0.57-1.09-0.73-2.23-0.5-3.44c-0.01-0.23,0.03-0.46,0.1-0.68
		c0.09-0.23,0.18-0.44,0.27-0.64c0.34-0.95,0.9-1.76,1.66-2.42c0.06-0.07,0.12-0.14,0.18-0.2c0.33-0.38,0.68-0.72,1.07-1.03
		c1.01-0.8,2.13-1.4,3.36-1.78c0.88-0.37,1.8-0.63,2.75-0.78c3.45-0.81,8.04-0.4,11.13,1.41c0.38,0.17,0.75,0.35,1.09,0.56
		c0.13,0.08,0.26,0.16,0.38,0.25h0.04c0.86,0.49,1.61,1.11,2.24,1.87c0.17,0.17,0.31,0.35,0.43,0.56c0.26,0.34,0.5,0.69,0.72,1.06
		c0.36,0.59,0.47,1.23,0.32,1.91c0.11,0.32,0.16,0.66,0.15,1c0.04,0.45-0.01,0.88-0.15,1.31c-0.04,0.66-0.28,1.24-0.72,1.74
		c-0.11,0.15-0.23,0.29-0.37,0.4h1.5c0.32-0.41,0.74-0.69,1.24-0.84c0.75-0.48,1.54-0.93,2.28-1.46c0.95-0.71,2.88-1.99,3.31-3.15
		c0.08-0.26,0.2-0.5,0.34-0.73c0.11-0.31,0.17-0.63,0.21-0.96c0.02-0.3,0.08-0.59,0.19-0.87c-0.05-0.85-0.1-1.68-0.23-2.54
		c-0.13-0.73-0.04-1.43,0.28-2.1C41.74,32.28,41.74,30.64,41.8,29.05z"/>
	<path style="opacity:0.8588;clip-path:url(#SVGID_00000144340252603522044630000005359329488801489327_);fill:#10161A;" d="
		M21.01,35.89c5.72,0,10.37,3.15,10.37,7.01s-4.65,7.01-10.37,7.01c-5.72,0-10.37-3.15-10.37-7.01S15.29,35.89,21.01,35.89"/>
</g>
</svg>
