<?xml version="1.0" encoding="utf-8"?>
<!-- Generator: Adobe Illustrator 28.1.0, SVG Export Plug-In . SVG Version: 6.00 Build 0)  -->
<svg version="1.1" id="Слой_1" xmlns="http://www.w3.org/2000/svg" xmlns:xlink="http://www.w3.org/1999/xlink" x="0px" y="0px"
	 viewBox="0 0 37.35 42.62" style="enable-background:new 0 0 37.35 42.62;" xml:space="preserve">
<style type="text/css">
	.st0{opacity:0.8588;clip-path:url(#SVGID_00000169555890474158078460000018146945115422536321_);fill:#10161A;}
</style>
<g>
	<defs>
		<rect id="SVGID_1_" x="-3.48" y="-3.93" width="44.3" height="50.47"/>
	</defs>
	<clipPath id="SVGID_00000163758932796833752490000002354992321994527135_">
		<use xlink:href="#SVGID_1_"  style="overflow:visible;"/>
	</clipPath>
	<path style="opacity:0.8588;clip-path:url(#SVGID_00000163758932796833752490000002354992321994527135_);fill:#10161A;" d="
		M37.35,13.29v7.68c-0.56,2.02-5.44,17.33-17.89,21.65c-0.17-0.22-0.45-0.39-0.79-0.39c-0.34,0-0.56,0.17-0.79,0.39
		C11.1,40.21,6.56,34.54,3.76,29.61c-0.17-0.28-0.34-0.56-0.45-0.84C1.29,25.01,0.28,21.81,0,20.92v-7.63
		c0.39-0.17,0.67-0.5,0.67-0.95c0-0.06,0-0.11-0.06-0.17c3.48-2.24,4.77-6.45,5.16-8.52L17.89,0c0.17,0.22,0.45,0.39,0.79,0.39
		c0.34,0,0.62-0.17,0.79-0.39l12,3.7c0.45,2.02,1.68,6.22,5.16,8.52v0.11c0,0.11,0,0.22,0.06,0.34
		C36.79,12.95,37.07,13.18,37.35,13.29z"/>
</g>
</svg>
