<?xml version="1.0" encoding="utf-8"?>
<!-- Generator: Adobe Illustrator 28.1.0, SVG Export Plug-In . SVG Version: 6.00 Build 0)  -->
<svg version="1.1" id="Слой_1" xmlns="http://www.w3.org/2000/svg" xmlns:xlink="http://www.w3.org/1999/xlink" x="0px" y="0px"
	 viewBox="0 0 594.96 684" style="enable-background:new 0 0 594.96 684;" xml:space="preserve">
<style type="text/css">
	.st0{clip-path:url(#SVGID_00000113349120589317612820000016326097962434088106_);fill:#B59E54;}
</style>
<g>
	<defs>
		<rect id="SVGID_1_" x="3.45" y="6" width="588.99" height="671"/>
	</defs>
	<clipPath id="SVGID_00000011027156252678266850000012467536546089802390_">
		<use xlink:href="#SVGID_1_"  style="overflow:visible;"/>
	</clipPath>
	<path style="clip-path:url(#SVGID_00000011027156252678266850000012467536546089802390_);fill:#B59E54;" d="M543.98,236.38v100.65
		c-7.46,26.84-71.57,227.39-234.85,284.8c-2.24-2.98-5.96-5.22-10.44-5.22c-4.47,0-7.46,2.24-10.44,5.22
		C124.98,563.67,61.61,363.12,53.41,336.28v-99.9c5.22-2.24,8.95-6.71,8.95-12.67c0-0.75,0-1.49-0.75-2.24
		c45.48-29.82,62.63-84.99,67.85-111.83l158.8-48.46c2.24,2.98,5.96,5.22,10.44,5.22c4.47,0,8.2-2.24,10.44-5.22l158.06,48.46
		c5.96,26.84,22.37,82.01,67.85,111.83c0,0.74,0,1.49,0,2.24C535.04,229.67,538.76,234.14,543.98,236.38z M476.88,104.41l-0.75-2.98
		L312.12,51.48c-0.75-6.71-5.96-12.67-13.42-12.67c-7.46,0-12.67,5.96-13.42,12.67l-164.02,49.95l-0.75,2.98
		c-4.47,23.86-20.13,79.03-64.12,108.11c-2.24-2.24-5.22-2.98-8.2-2.98c-7.46,0-13.42,5.96-13.42,14.17
		c0,5.96,3.73,11.18,8.95,12.67v100.65v1.49c6.71,23.86,72.32,232.61,241.56,292.26c0.75,7.46,5.96,13.42,13.42,13.42
		c7.46,0,13.42-5.96,13.42-13.42c69.34-24.6,128.98-75.3,177.44-152.09c39.51-62.63,58.9-123.02,64.12-140.16V236.38
		c5.22-2.24,8.95-6.71,8.95-12.67c0-7.46-5.96-14.17-13.42-14.17c-2.98,0-5.96,1.49-8.2,2.98
		C497.01,184.19,481.36,128.27,476.88,104.41z M575.3,341.5c-5.22,18.64-75.3,261.69-277.35,316.86
		C97.4,603.19,27.31,359.39,22.09,341.5V205.06c61.88-17.89,76.79-96.92,79.77-120.03L298.7,25.38l196.83,59.64
		c2.98,23.11,17.89,102.14,79.77,120.03V341.5z M585.73,188.66c-64.86-13.42-73.81-111.09-73.81-111.83l-0.75-5.96L297.95,6
		L84.72,70.86l-0.75,5.96c0,0.75-8.95,99.16-73.81,111.83l-7.46,1.49v152.09v2.24c0.75,2.98,72.32,273.62,292.26,331.77l2.24,0.75
		l2.24-0.75c222.18-58.15,293-328.79,293.75-331.77V190.15L585.73,188.66z M543.98,336.28c-7.46,26.84-71.57,227.39-234.85,284.8
		c-2.24-2.98-5.96-5.22-10.44-5.22c-4.47,0-7.46,2.24-10.44,5.22C124.98,563.67,61.61,363.12,53.41,336.28v-99.9
		c5.22-2.24,8.95-6.71,8.95-12.67c0-0.75,0-1.49-0.75-2.24c45.48-29.82,62.63-84.99,67.85-111.83l158.8-48.46
		c2.24,2.98,5.96,5.22,10.44,5.22c4.47,0,8.2-2.24,10.44-5.22l158.06,48.46c5.96,26.84,22.37,82.01,67.85,111.83
		c0,0.74,0,1.49,0,2.24c0,5.96,3.73,11.18,8.95,12.67V336.28z M549.2,209.54c-2.98,0-5.96,1.49-8.2,2.98
		c-43.24-29.08-58.9-84.25-64.12-108.11l-0.75-2.98L312.12,51.48c-0.75-6.71-5.96-12.67-13.42-12.67c-7.46,0-12.67,5.96-13.42,12.67
		l-164.02,49.95l-0.75,2.98c-4.47,23.86-20.13,79.03-64.12,108.11c-2.24-2.24-5.22-2.98-8.2-2.98c-7.46,0-13.42,5.96-13.42,14.17
		c0,5.96,3.73,11.18,8.95,12.67v100.65v1.49c6.71,23.86,72.32,232.61,241.56,292.26c0.75,7.46,5.96,13.42,13.42,13.42
		c7.46,0,13.42-5.96,13.42-13.42c69.34-24.6,128.98-75.3,177.44-152.09c39.51-62.63,58.9-123.02,64.12-140.16V236.38
		c5.22-2.24,8.95-6.71,8.95-12.67C562.62,215.5,556.66,209.54,549.2,209.54z M543.98,336.28c-7.46,26.84-71.57,227.39-234.85,284.8
		c-2.24-2.98-5.96-5.22-10.44-5.22c-4.47,0-7.46,2.24-10.44,5.22C124.98,563.67,61.61,363.12,53.41,336.28v-99.9
		c5.22-2.24,8.95-6.71,8.95-12.67c0-0.75,0-1.49-0.75-2.24c45.48-29.82,62.63-84.99,67.85-111.83l158.8-48.46
		c2.24,2.98,5.96,5.22,10.44,5.22c4.47,0,8.2-2.24,10.44-5.22l158.06,48.46c5.96,26.84,22.37,82.01,67.85,111.83
		c0,0.74,0,1.49,0,2.24c0,5.96,3.73,11.18,8.95,12.67V336.28z M549.2,209.54c-2.98,0-5.96,1.49-8.2,2.98
		c-43.24-29.08-58.9-84.25-64.12-108.11l-0.75-2.98L312.12,51.48c-0.75-6.71-5.96-12.67-13.42-12.67c-7.46,0-12.67,5.96-13.42,12.67
		l-164.02,49.95l-0.75,2.98c-4.47,23.86-20.13,79.03-64.12,108.11c-2.24-2.24-5.22-2.98-8.2-2.98c-7.46,0-13.42,5.96-13.42,14.17
		c0,5.96,3.73,11.18,8.95,12.67v100.65v1.49c6.71,23.86,72.32,232.61,241.56,292.26c0.75,7.46,5.96,13.42,13.42,13.42
		c7.46,0,13.42-5.96,13.42-13.42c69.34-24.6,128.98-75.3,177.44-152.09c39.51-62.63,58.9-123.02,64.12-140.16V236.38
		c5.22-2.24,8.95-6.71,8.95-12.67C562.62,215.5,556.66,209.54,549.2,209.54z"/>
</g>
</svg>
