<?xml version="1.0" encoding="utf-8"?>
<!-- Generator: Adobe Illustrator 28.1.0, SVG Export Plug-In . SVG Version: 6.00 Build 0)  -->
<svg version="1.1" id="Слой_1" xmlns="http://www.w3.org/2000/svg" xmlns:xlink="http://www.w3.org/1999/xlink" x="0px" y="0px"
	 viewBox="0 0 594.96 381.81" style="enable-background:new 0 0 594.96 381.81;" xml:space="preserve">
<style type="text/css">
	.st0{clip-path:url(#SVGID_00000015334499232978757650000018419774887940458390_);fill:#B59E54;}
</style>
<g>
	<defs>
		<rect id="SVGID_1_" x="1.04" y="0" width="593.92" height="381.8"/>
	</defs>
	<clipPath id="SVGID_00000043445080029420368580000000819863455581485192_">
		<use xlink:href="#SVGID_1_"  style="overflow:visible;"/>
	</clipPath>
	<path style="clip-path:url(#SVGID_00000043445080029420368580000000819863455581485192_);fill:#B59E54;" d="M579.69,229.08
		l-84.85,134.06h-14.42l99.27-159.51V229.08z M101.16,363.14L16.31,229.08v-25.45l99.27,159.51H101.16z M16.31,152.72l84.85-134.06
		h15.27l-0.85,0.85L16.31,178.18V152.72z M126.61,18.67h343.63l0.85,0.85L577.99,190.9L470.24,363.14H125.76L18.01,190.9
		L126.61,18.67z M494.84,18.67l84.85,134.06v25.45L480.42,19.51l-0.85-0.85H494.84z M502.48,0H93.52L1.04,145.94v89.09l92.48,146.78
		h408.11l93.33-145.94v-89.94L502.48,0z"/>
</g>
</svg>
