<?xml version="1.0" encoding="utf-8"?>
<!-- Generator: Adobe Illustrator 28.1.0, SVG Export Plug-In . SVG Version: 6.00 Build 0)  -->
<svg version="1.1" id="Слой_1" xmlns="http://www.w3.org/2000/svg" xmlns:xlink="http://www.w3.org/1999/xlink" x="0px" y="0px"
	 viewBox="0 0 589.74 554.95" style="enable-background:new 0 0 589.74 554.95;" xml:space="preserve">
<style type="text/css">
	.st0{clip-path:url(#SVGID_00000149341803916845779380000017429945270160260235_);fill:#B59E54;}
</style>
<g>
	<defs>
		<rect id="SVGID_1_" x="1.81" width="586.13" height="554.95"/>
	</defs>
	<clipPath id="SVGID_00000036939985417650480190000014330207871500202637_">
		<use xlink:href="#SVGID_1_"  style="overflow:visible;"/>
	</clipPath>
	<path style="clip-path:url(#SVGID_00000036939985417650480190000014330207871500202637_);fill:#B59E54;" d="M525.58,539.49H494.9
		c23.86-10.2,42.83-26.18,56.93-47.95h0.5v-0.81c8.55-13.22,15.28-27.32,20.2-42.28v43.65L525.58,539.49z M17.21,492.1v-43.65
		c4.92,14.96,11.65,29.05,20.2,42.28v0.81h0.5c14.1,21.77,33.07,37.76,56.93,47.95H64.47L17.21,492.1z M64.47,15.46h30.37
		c-23.86,10.2-42.83,26.18-56.93,47.95h-0.5v0.81c-8.56,13.22-15.3,27.31-20.2,42.28V62.85L64.47,15.46z M552.33,77.07
		c1.87,3.31,3.87,6.24,5.55,10.1c6.58,14.22,11.46,29,14.65,44.33v291.32c-3.99,19.32-10.72,37.63-20.2,54.93V77.07z M17.21,132.07
		c4-19.3,10.73-37.59,20.2-54.87v400.69c-1.87-3.31-3.87-6.24-5.55-10.1c-6.58-14.22-11.46-28.99-14.65-44.33V132.07z
		 M473.21,539.49H116.29c-14.33-3.37-27.57-9.22-39.72-17.53c-12.15-8.31-22.4-18.53-30.74-30.67V63.91
		c8.41-12.15,18.7-22.4,30.89-30.75c12.18-8.35,25.46-14.25,39.82-17.7h356.91c14.34,3.36,27.59,9.2,39.74,17.51
		c12.15,8.32,22.39,18.54,30.72,30.69v427.37c-8.41,12.15-18.7,22.4-30.89,30.75C500.84,530.13,487.57,536.03,473.21,539.49z
		 M572.66,62.85v43.65c-4.91-14.97-11.64-29.06-20.2-42.28v-0.81h-0.5c-14.1-21.77-33.07-37.76-56.93-47.95h30.55L572.66,62.85z
		 M531.82,0H57.93L1.81,56.43v442.4l56.12,56.12h473.89l56.12-56.12V56.43L531.82,0z"/>
</g>
</svg>
