<?xml version="1.0" encoding="utf-8"?>
<!-- Generator: Adobe Illustrator 28.1.0, SVG Export Plug-In . SVG Version: 6.00 Build 0)  -->
<svg version="1.1" id="Слой_1" xmlns="http://www.w3.org/2000/svg" xmlns:xlink="http://www.w3.org/1999/xlink" x="0px" y="0px"
	 viewBox="0 0 46.09 48.23" style="enable-background:new 0 0 46.09 48.23;" xml:space="preserve">
<style type="text/css">
	.st0{opacity:0.8588;clip-path:url(#SVGID_00000062185291891626083230000017883295481031772544_);fill:#10161A;}
</style>
<g>
	<defs>
		<rect id="SVGID_1_" x="-3.18" y="-0.56" width="52.71" height="49.91"/>
	</defs>
	<clipPath id="SVGID_00000042006475316038989000000015521025401237774212_">
		<use xlink:href="#SVGID_1_"  style="overflow:visible;"/>
	</clipPath>
	<path style="opacity:0.8588;clip-path:url(#SVGID_00000042006475316038989000000015521025401237774212_);fill:#10161A;" d="
		M45.91,4.74c-0.59-0.53-1.15-1.09-1.68-1.68C42.43,1.77,40.5,0.75,38.43,0H7.11C6.82,0.09,6.53,0.2,6.25,0.33
		C6.02,0.59,5.74,0.8,5.43,0.95C4.29,1.54,3.27,2.29,2.37,3.21c-0.9,0.92-1.63,1.96-2.19,3.11c0.07,0.29,0.09,0.59,0.07,0.89
		c0.07,0.22,0.12,0.44,0.13,0.66c0.56,7.13,0.32,14.49,0.22,21.64c-0.05,3.65,0,7.29-0.03,10.92c0,1.12-0.06,2.29-0.12,3.43
		c0.46,0.61,0.98,1.16,1.56,1.65c1.3,0.98,2.65,1.88,4.06,2.7h34.48l0.04-0.03c2.06-1.24,3.8-2.83,5.22-4.77
		c0.07-3.36,0.36-6.73,0.2-10.09s0.11-6.67,0.2-10.04c0.09-3.66,0-7.35-0.1-11.01C46.08,9.85,46.21,7.21,45.91,4.74z"/>
</g>
</svg>
