<?xml version="1.0" encoding="utf-8"?>
<!-- Generator: Adobe Illustrator 28.1.0, SVG Export Plug-In . SVG Version: 6.00 Build 0)  -->
<svg version="1.1" id="Слой_1" xmlns="http://www.w3.org/2000/svg" xmlns:xlink="http://www.w3.org/1999/xlink" x="0px" y="0px"
	 viewBox="0 0 135.21 19.07" style="enable-background:new 0 0 135.21 19.07;" xml:space="preserve">
<style type="text/css">
	.st0{opacity:0.502;clip-path:url(#SVGID_00000053511150965319378430000015135088416954818483_);fill:#B59E54;}
</style>
<g>
	<defs>
		<rect id="SVGID_1_" width="135.15" height="19.07"/>
	</defs>
	<clipPath id="SVGID_00000143595667250754180040000005075864377232459432_">
		<use xlink:href="#SVGID_1_"  style="overflow:visible;"/>
	</clipPath>
	<path style="opacity:0.502;clip-path:url(#SVGID_00000143595667250754180040000005075864377232459432_);fill:#B59E54;" d="
		M18.95,2.86c-1.35-0.28-2.86-0.73-4.65-1.46h2.97C17.89,1.85,18.45,2.36,18.95,2.86z M25.29,2.58c-0.79,0.39-2.07,0.79-4.32,0.62
		c-0.17-0.22-0.28-0.39-0.45-0.62H25.29z M134.14,5.61v1.07c-1.29-1.91-3.98-3.31-5.83-4.09h3.08
		C131.84,3.2,132.96,4.88,134.14,5.61z M131.45,16.49h-3.08c1.85-0.79,4.54-2.19,5.83-4.09v1.07
		C132.96,14.19,131.84,15.87,131.45,16.49z M21.03,15.87c2.19-0.22,3.53,0.22,4.32,0.62h-4.77C20.69,16.26,20.86,16.09,21.03,15.87z
		 M17.27,17.66H14.3c1.79-0.73,3.36-1.18,4.65-1.46C18.45,16.71,17.89,17.22,17.27,17.66z M22.49,3.81
		c0.34,0.56,1.74,2.92,1.74,5.72c0,2.8-1.4,5.16-1.74,5.72c-0.34,0-0.73,0-1.12,0c1.01-1.74,1.63-3.7,1.63-5.78
		c0-2.07-0.56-4.04-1.57-5.78C21.76,3.81,22.15,3.81,22.49,3.81z M126.91,2.58c1.74,0.62,6.22,2.52,7.23,5.22v3.48
		c-1.07,2.69-5.55,4.6-7.23,5.22H26.3c-0.45-0.39-1.4-1.01-3.2-1.18c0.5-0.84,1.68-3.08,1.68-5.78c0-2.69-1.12-4.93-1.68-5.78
		c1.79-0.17,2.75-0.79,3.2-1.18H126.91z M1.4,9.53c0-3.25,1.63-6.28,4.26-8.13h5.78c2.64,1.18,6.22,1.79,8.02,2.13
		c1.29,1.68,2.07,3.81,2.07,6c0,2.19-0.73,4.32-2.07,6c-1.74,0.34-5.33,0.95-8.02,2.13H5.66C3.03,15.81,1.4,12.79,1.4,9.53z
		 M5.1,0.11C1.91,2.24,0,5.72,0,9.53c0,3.81,1.91,7.29,5.1,9.42l0.17,0.11h12.39l0.17-0.11c0.67-0.45,1.29-0.95,1.85-1.51h112.27
		l0.17-0.22c0.39-0.67,1.68-2.52,2.75-3.03l0.28-0.11V5.05l-0.28-0.11c-1.07-0.5-2.36-2.36-2.75-3.03l-0.17-0.22H19.68
		c-0.56-0.56-1.18-1.07-1.85-1.51l-0.17-0.11H5.27L5.1,0.11z"/>
</g>
</svg>
