<?xml version="1.0" encoding="utf-8"?>
<!-- Generator: Adobe Illustrator 28.1.0, SVG Export Plug-In . SVG Version: 6.00 Build 0)  -->
<svg version="1.1" id="Слой_1" xmlns="http://www.w3.org/2000/svg" xmlns:xlink="http://www.w3.org/1999/xlink" x="0px" y="0px"
	 viewBox="0 0 152.89 428.12" style="enable-background:new 0 0 152.89 428.12;" xml:space="preserve">
<style type="text/css">
	.st0{opacity:0.8588;clip-path:url(#SVGID_00000093894869114125790250000000463052805825144244_);fill:#10161A;}
</style>
<g>
	<defs>
		<rect id="SVGID_1_" x="-1.8" y="-0.89" width="157.58" height="429.01"/>
	</defs>
	<clipPath id="SVGID_00000101810508239601461910000012043311851815603373_">
		<use xlink:href="#SVGID_1_"  style="overflow:visible;"/>
	</clipPath>
	<path style="opacity:0.8588;clip-path:url(#SVGID_00000101810508239601461910000012043311851815603373_);fill:#10161A;" d="
		M152.46,402.32c-0.17-0.82-0.4-1.62-0.69-2.41c-0.96-2.45-0.63-326.75-0.63-326.75s0-17.06-0.33-27.48
		c-0.2-6.65,0.96-14.88,1.84-19.96c-0.37-0.23-0.65-0.53-0.84-0.92c-0.95-2.02-1.35-4.2-0.56-6.36c0.12-0.34,0.3-0.66,0.52-0.95
		c-0.39-1.77-0.19-3.63-0.73-5.35c-0.54-1.37-1.2-2.68-1.99-3.93c-0.67-1.4-1.6-2.59-2.8-3.57c-1.12-0.83-2.29-1.4-3.25-2.39
		c-0.98-0.4-1.96-0.8-2.92-1.24l-0.22-0.12H14.69c-0.57,0.51-1.24,0.74-2.01,0.71c-0.36,0.37-0.78,0.64-1.26,0.81l-0.22,0.07
		L11.1,2.5c-0.24,0.14-0.49,0.26-0.72,0.41C10.13,3.05,9.9,3.21,9.69,3.39c0.56-0.51-0.15,0.13-0.25,0.23
		c-0.46,0.4-0.99,0.64-1.59,0.75c-0.77,0.71-1.5,1.46-2.19,2.24c-2.57,3.07-2.71,7.58-3.5,11.33c0,0.08-0.04,0.15-0.06,0.22
		c0.07,0.28,0.13,0.56,0.16,0.85c-0.09-0.67,0.05,0.2,0.08,0.33c0.05,0.24,0.11,0.47,0.17,0.71c0.13,0.49,0.3,0.97,0.49,1.44
		c0.6,1.45-0.66,3.03-1.96,3.45c-0.13,0.04-0.26,0.07-0.39,0.08c0.87,5.01,2.16,13.69,1.95,20.64C2.28,56.07,2.28,73.14,2.28,73.14
		s0.36,323.09-0.56,329.37c0.32,0.13,0.61,0.31,0.87,0.55c0.26,0.23,0.46,0.51,0.62,0.82c0.16,0.31,0.26,0.64,0.3,0.98
		c0.04,0.34,0.02,0.69-0.07,1.02c-0.33,1.37-0.83,2.68-1.5,3.93c0.34,0.49,0.5,1.03,0.48,1.63c-0.15,8.06,6.8,12.67,13.33,15.8
		c0.17,0.08,0.34,0.18,0.49,0.3h121.64c0.47-0.37,1-0.57,1.59-0.61c0.22-0.35,0.52-0.62,0.89-0.81c0.56-0.28,1.16-0.52,1.75-0.77
		l0.36-0.15l-0.31,0.13c0.25-0.09,0.49-0.2,0.72-0.34c0.12-0.06,0.25-0.1,0.38-0.15c0.56-0.56,1.04-1.08,1.35-1.33
		c1.63-1.36,3.49-2.39,4.41-4.38c0.21-0.48,0.53-0.85,0.98-1.12c0.45-2.75,1.19-5.45,1.45-8.24c0.03-0.4,0.14-0.77,0.32-1.12
		c0-0.11-0.04-0.2-0.06-0.29c-0.21-0.98-0.49-1.93-0.72-2.9c-0.08-0.31-0.11-0.62-0.08-0.93c0.03-0.32,0.11-0.62,0.24-0.9
		c0.13-0.29,0.31-0.54,0.54-0.76C151.92,402.63,152.18,402.45,152.46,402.32z"/>
</g>
</svg>
