<?xml version="1.0" encoding="utf-8"?>
<!-- Generator: Adobe Illustrator 28.1.0, SVG Export Plug-In . SVG Version: 6.00 Build 0)  -->
<svg version="1.1" id="Слой_1" xmlns="http://www.w3.org/2000/svg" xmlns:xlink="http://www.w3.org/1999/xlink" x="0px" y="0px"
	 viewBox="0 0 594.96 424.73" preserveAspectRatio="none" style="enable-background:new 0 0 594.96 424.73;" xml:space="preserve">
<style type="text/css">
	.st0{clip-path:url(#SVGID_00000031919091565253285310000017904838713174993555_);fill:#B59E54;}
</style>
<g>
	<defs>
		<rect id="SVGID_1_" y="1.27" width="594.96" height="423.46"/>
	</defs>
	<clipPath id="SVGID_00000053541308028704754930000015886338167208273544_">
		<use xlink:href="#SVGID_1_"  style="overflow:visible;"/>
	</clipPath>
	<path style="clip-path:url(#SVGID_00000053541308028704754930000015886338167208273544_);fill:#B59E54;" d="M585.11,319.92
		c-2.79-21.04-3.86-42.17-3.2-63.39c2.12,22.59,4.85,46.33,8.47,59.09c-1.86,1.29-3.61,2.7-5.27,4.23 M583.84,346.09l-1.08,11.92
		c-2.12-6.35-4.23-11.5-4.38-11.77c-1.07-4.77-0.47-9.31,1.8-13.64C581.16,337.17,582.38,341.66,583.84,346.09 M556.32,417.62h-18.8
		c35.23-14.25,41.65-41.03,42.18-56.49c0.8,2.6,1.57,5.34,2.12,7.94l-2.63,29.24C573.28,400.42,558.97,406.77,556.32,417.62
		 M15.82,398.31l-2.67-29.24c0.53-2.5,1.25-5.12,2.12-7.66c0.18,6.2,1.27,12.23,3.28,18.1c4.23,12.47,14.57,28.22,39,38.11H38.64
		c-2.65-10.86-16.94-17.15-22.87-19.31 M16.66,346.09c-0.19,0.42-2.39,5.63-4.49,12.09l-1.08-11.92c1.5-4.52,2.75-9.12,3.73-13.78
		c2.3,4.25,2.93,8.73,1.88,13.44 M4.55,315.75c3.62-12.7,6.35-36.5,8.47-59.09c0.66,21.21-0.39,42.33-3.18,63.37
		c-1.67-1.53-3.43-2.94-5.29-4.23 M9.82,106.08c2.79,21.04,3.86,42.17,3.2,63.39c-2.12-22.59-4.85-46.33-8.47-59.09
		c1.86-1.29,3.61-2.7,5.27-4.23 M11.12,79.93l1.08-11.94c2.12,6.35,4.23,11.5,4.38,11.77c1.09,4.76,0.5,9.31-1.76,13.64
		c-0.97-4.56-2.19-9.05-3.66-13.47 M38.64,8.38h18.8c-35.23,14.27-41.65,41.03-42.18,56.4c-0.8-2.6-1.57-5.34-2.12-7.94l2.63-29.16
		C21.68,25.58,35.99,19.23,38.64,8.38 M579.14,27.69l2.63,29.24c-0.53,2.52-1.25,5.15-2.12,7.66c-0.18-6.2-1.27-12.23-3.28-18.1
		c-4.23-12.45-14.57-28.22-39-38.11h18.82c2.65,10.86,16.94,17.15,22.87,19.31 M578.28,79.97c0.19-0.42,2.39-5.63,4.49-12.09
		l1.08,11.94c-1.5,4.5-2.73,9.06-3.71,13.7c-2.3-4.25-2.93-8.73-1.88-13.44 M590.39,110.31c-3.62,12.7-6.35,36.5-8.47,59.09
		c-0.66-21.21,0.39-42.33,3.18-63.37c1.67,1.53,3.44,2.94,5.29,4.23 M574.72,347.36c0,0,0.95,2.22,2.12,5.44
		c0.94,8.8,0,17.4-2.82,25.79c-6.25,18.21-21.51,31.53-44.21,38.94H64.96c-48.7-15.84-48.27-53.38-46.92-64.6
		c1.25-3.37,2.24-5.72,2.31-5.89c0.76-3.54,0.76-7.08-0.02-10.61c-0.78-3.54-2.25-6.75-4.43-9.65c7.16-39.13,3.51-88.93,3.35-91.21
		V190.6c0.19-2.48,3.83-52.38-3.32-91.53c2.16-2.95,3.62-6.21,4.37-9.79c0.75-3.58,0.73-7.15-0.06-10.72c0,0-0.95-2.24-2.12-5.44
		c-0.95-8.8-0.03-17.39,2.77-25.79c6.35-18.21,21.51-31.55,44.23-38.94H530c48.8,15.84,48.27,53.38,46.92,64.6
		c-1.25,3.37-2.24,5.72-2.31,5.89c-0.76,3.54-0.76,7.08,0.02,10.61c0.77,3.54,2.25,6.75,4.43,9.65
		c-7.16,39.13-3.51,88.93-3.35,91.21v45.06c-0.19,2.48-3.83,52.38,3.32,91.53c-2.17,2.95-3.63,6.21-4.38,9.79
		c-0.76,3.58-0.74,7.15,0.04,10.73 M582.85,215.96v4.23c1.63-26.53,5.59-90.34,11.69-110.1l0.44-1.44l-1.27-0.78
		c-2.85-1.87-5.45-4.05-7.79-6.52c1.12-6.75,2.78-13.37,4.95-19.86l0.25-0.72l-5.27-58.33l-2.29-0.72
		c-5.34-1.65-20.56-8.28-20.56-16.94V1.27H31.95v3.56c0,8.58-14.82,15.08-20.56,16.94L9.1,22.44L3.85,80.8l0.25,0.72
		c2.17,6.48,3.82,13.08,4.95,19.82c-2.35,2.49-4.94,4.67-7.79,6.56L0,108.7l0.44,1.42c6.1,19.75,10.04,83.44,11.67,110.1v-4.23
		c-1.52,26.38-5.57,80.12-11.67,99.89L0,317.32l1.27,0.78c2.85,1.87,5.45,4.05,7.79,6.52C7.95,331.38,6.3,338,4.11,344.48
		l-0.25,0.72l5.25,58.35l2.29,0.72c5.72,1.78,20.56,8.28,20.56,16.94v3.51h531.06v-3.56c0-8.47,14.82-15.08,20.56-16.94l2.29-0.72
		l5.25-58.4l-0.25-0.72c-2.17-6.48-3.82-13.08-4.95-19.82c2.35-2.49,4.94-4.67,7.79-6.56l1.27-0.8l-0.44-1.42
		c-6.1-19.75-10.04-73.36-11.67-99.92"/>
</g>
</svg>
