<?xml version="1.0" encoding="utf-8"?>
<!-- Generator: Adobe Illustrator 28.1.0, SVG Export Plug-In . SVG Version: 6.00 Build 0)  -->
<svg version="1.1" id="Слой_1" xmlns="http://www.w3.org/2000/svg" xmlns:xlink="http://www.w3.org/1999/xlink" x="0px" y="0px"
	 viewBox="0 0 151.89 111.25" style="enable-background:new 0 0 151.89 111.25;" xml:space="preserve">
<style type="text/css">
	.st0{opacity:0.8588;clip-path:url(#SVGID_00000161615426301441430980000002346491271976092040_);fill:#10161A;}
</style>
<g>
	<defs>
		<rect id="SVGID_1_" x="-2.59" y="-0.62" width="157.58" height="112.16"/>
	</defs>
	<clipPath id="SVGID_00000124155824527993871310000017462089943925715121_">
		<use xlink:href="#SVGID_1_"  style="overflow:visible;"/>
	</clipPath>
	<path style="opacity:0.8588;clip-path:url(#SVGID_00000124155824527993871310000017462089943925715121_);fill:#10161A;" d="
		M151.51,85.51c-0.14-0.57-0.32-1.13-0.52-1.68c-0.96-2.39-0.63-22.02-0.63-22.02s0-7.11-0.33-17.33
		c-0.2-6.28,0.88-14.02,1.74-19.03c-0.68-0.54-1.17-1.22-1.47-2.03c-0.3-0.81-0.37-1.65-0.21-2.5c0.09-0.49,0.24-0.97,0.44-1.42
		c0-0.65,0.07-1.3,0.15-1.94c-0.46-2.94-0.63-6.02-2.05-8.65c-1.42-2.62-3.84-4.36-5.97-6.28c-0.04-0.04-0.07-0.08-0.11-0.13
		c-1.24-0.59-2.59-1-3.8-1.68c-0.17-0.09-0.32-0.2-0.47-0.32H14.34c-0.44,0.29-0.89,0.56-1.32,0.88c-0.48,0.32-1.01,0.45-1.59,0.38
		C7.94,4.78,4.1,6.8,2.61,11.61c-0.51,1.73-0.85,3.49-1,5.29c0.02,0.08,0.04,0.16,0.06,0.24c0.15,0.85,0.24,1.68,0.32,2.55
		c0,0,0.07,0.51,0.07,0.56c0.08,0.37,0.18,0.73,0.31,1.08c0.16,0.5,0.16,1.01,0.01,1.51c-0.15,0.51-0.43,0.93-0.84,1.26
		c-0.26,0.74-0.72,1.3-1.4,1.68c0.85,5.05,1.87,12.55,1.68,18.69C1.5,54.7,1.5,61.8,1.5,61.8s0.33,19.63-0.63,22.02
		c-0.25,0.67-0.45,1.35-0.61,2.05c0.41,0.14,0.76,0.37,1.06,0.69c0.3,0.31,0.51,0.68,0.63,1.09c0.73,2.24,0.23,4.67-0.44,7
		c0.06,0.2,0.1,0.41,0.11,0.62c0.64,7.22,5.68,12.2,12.06,14.96c0.4,0.16,0.74,0.41,1.03,0.74h121.02c1.09-0.3,2.19-0.56,3.26-0.93
		c0.21-0.21,0.46-0.37,0.73-0.48c0.38-0.39,0.83-0.63,1.36-0.73l0.42-0.11c0.17-0.19,0.37-0.34,0.59-0.45
		c0.7-0.35,1.43-0.66,2.13-1.04c0.3-0.28,0.62-0.54,0.96-0.79c0.11-0.08,0.23-0.15,0.36-0.2c0.04-0.05,0.09-0.1,0.13-0.15
		c0.04-0.05,0.32-0.47,0.32-0.47c0.34-0.53,0.8-0.91,1.38-1.16c0.25-0.31,0.49-0.63,0.72-0.95l0.06-0.07
		c1.67-2.98,2.55-6.18,2.65-9.6c0-0.06,0-0.12,0-0.17c-0.93-1.86-0.72-3.7-0.86-5.71c-0.01-0.53,0.12-1.03,0.41-1.48
		C150.63,86.05,151.01,85.72,151.51,85.51z"/>
</g>
</svg>
